<?xml version="1.0" encoding="iso-8859-1"?>
<!-- Generator: Adobe Illustrator 17.1.0, SVG Export Plug-In . SVG Version: 6.00 Build 0)  -->
<!DOCTYPE svg PUBLIC "-//W3C//DTD SVG 1.1//EN" "http://www.w3.org/Graphics/SVG/1.1/DTD/svg11.dtd">
<svg xmlns="http://www.w3.org/2000/svg" xmlns:xlink="http://www.w3.org/1999/xlink" version="1.1" id="Capa_1" x="0px" y="0px" viewBox="0 0 289.271 289.271" style="enable-background:new 0 0 289.271 289.271;" xml:space="preserve" width="512px" height="512px">
<g>
	<path d="M281.483,31.892H152.136V7.5c0-4.143-3.358-7.5-7.5-7.5s-7.5,3.357-7.5,7.5v24.392H7.788   c-4.142,0-7.5,3.357-7.5,7.5v179.39c0,4.143,3.358,7.5,7.5,7.5h119.73l-50.187,50.187c-2.929,2.93-2.929,7.678,0,10.607   c2.928,2.927,7.677,2.929,10.606,0l56.698-56.698l56.698,56.698c1.464,1.464,3.384,2.196,5.303,2.196s3.839-0.732,5.303-2.196   c2.929-2.93,2.929-7.678,0-10.607l-50.187-50.187h119.73c4.142,0,7.5-3.357,7.5-7.5V39.392   C288.983,35.249,285.625,31.892,281.483,31.892z M273.983,211.281H15.288V46.892h258.695V211.281z" fill="#34495e"/>
	<path d="M38.24,193.676h212.792c4.142,0,7.5-3.357,7.5-7.5v-78.54c0-4.143-3.358-7.5-7.5-7.5   s-7.5,3.357-7.5,7.5v71.04H45.74V79.498h169.896c4.142,0,7.5-3.357,7.5-7.5s-3.358-7.5-7.5-7.5H38.24c-4.142,0-7.5,3.357-7.5,7.5   v114.178C30.74,190.318,34.098,193.676,38.24,193.676z" fill="#34495e"/>
</g>
<g>
</g>
<g>
</g>
<g>
</g>
<g>
</g>
<g>
</g>
<g>
</g>
<g>
</g>
<g>
</g>
<g>
</g>
<g>
</g>
<g>
</g>
<g>
</g>
<g>
</g>
<g>
</g>
<g>
</g>
</svg>
